<svg width="20" height="21" viewBox="0 0 20 21" fill="none" xmlns="http://www.w3.org/2000/svg">
<path d="M18.3334 6.25033C18.7476 6.25033 19.0834 5.91454 19.0834 5.50033C19.0834 5.08611 18.7476 4.75033 18.3334 4.75033V6.25033ZM11.6667 4.75033C11.2525 4.75033 10.9167 5.08611 10.9167 5.50033C10.9167 5.91454 11.2525 6.25033 11.6667 6.25033V4.75033ZM15.7501 2.16699C15.7501 1.75278 15.4143 1.41699 15.0001 1.41699C14.5859 1.41699 14.2501 1.75278 14.2501 2.16699H15.7501ZM14.2501 8.83366C14.2501 9.24787 14.5859 9.58366 15.0001 9.58366C15.4143 9.58366 15.7501 9.24787 15.7501 8.83366H14.2501ZM18.3334 4.75033H15.0001V6.25033H18.3334V4.75033ZM15.0001 4.75033H11.6667V6.25033H15.0001V4.75033ZM14.2501 2.16699V5.50033H15.7501V2.16699H14.2501ZM14.2501 5.50033V8.83366H15.7501V5.50033H14.2501Z" fill="#696F79"/>
<path d="M9.58341 3C5.85146 3 3.98549 3 2.82612 4.15937C1.66675 5.31874 1.66675 7.18471 1.66675 10.9167C1.66675 14.6486 1.66675 16.5146 2.82612 17.674C3.98549 18.8333 5.85146 18.8333 9.58341 18.8333C13.3154 18.8333 15.1813 18.8333 16.3407 17.674C17.5001 16.5146 17.5001 14.6486 17.5001 10.9167V10.5" stroke="#696F79" stroke-width="1.5" stroke-linecap="round"/>
<path d="M1.66675 12.2799C2.1826 12.2049 2.70412 12.1679 3.22651 12.1692C5.43646 12.1225 7.59228 12.8111 9.30931 14.1121C10.9018 15.3188 12.0207 16.9794 12.5001 18.8337" stroke="#696F79" stroke-width="1.5" stroke-linejoin="round"/>
<path d="M17.5 14.5808C16.5205 14.0847 15.5073 13.833 14.4885 13.834C12.9454 13.8279 11.4179 14.3951 10 15.5007" stroke="#696F79" stroke-width="1.5" stroke-linejoin="round"/>
</svg>
