<svg width="25" height="24" viewBox="0 0 25 24" fill="none" xmlns="http://www.w3.org/2000/svg">
<path d="M3 12C3 7.52166 3 5.28249 4.39124 3.89124C5.78249 2.5 8.02166 2.5 12.5 2.5C16.9783 2.5 19.2175 2.5 20.6088 3.89124C22 5.28249 22 7.52166 22 12C22 16.4783 22 18.7175 20.6088 20.1088C19.2175 21.5 16.9783 21.5 12.5 21.5C8.02166 21.5 5.78249 21.5 4.39124 20.1088C3 18.7175 3 16.4783 3 12Z" stroke="url(#paint0_linear_87_1704)" stroke-width="1.5"/>
<circle cx="17" cy="7.5" r="1.5" stroke="url(#paint1_linear_87_1704)" stroke-width="1.5"/>
<path d="M16.5 22C15.8805 19.7749 14.4345 17.7821 12.3765 16.3342C10.1576 14.7729 7.37163 13.9466 4.51569 14.0027C4.17658 14.0019 3.83776 14.0127 3.5 14.0351" stroke="url(#paint2_linear_87_1704)" stroke-width="1.5" stroke-linejoin="round"/>
<path d="M13.5 18C15.2015 16.6733 17.0345 15.9928 18.8862 16.0001C19.9362 15.999 20.9812 16.2216 22 16.6617" stroke="url(#paint3_linear_87_1704)" stroke-width="1.5" stroke-linejoin="round"/>
<defs>
<linearGradient id="paint0_linear_87_1704" x1="3" y1="12" x2="22" y2="12" gradientUnits="userSpaceOnUse">
<stop stop-color="#632366"/>
<stop offset="1" stop-color="#44798E"/>
</linearGradient>
<linearGradient id="paint1_linear_87_1704" x1="15.5" y1="7.5" x2="18.5" y2="7.5" gradientUnits="userSpaceOnUse">
<stop stop-color="#632366"/>
<stop offset="1" stop-color="#44798E"/>
</linearGradient>
<linearGradient id="paint2_linear_87_1704" x1="3.5" y1="18" x2="16.5" y2="18" gradientUnits="userSpaceOnUse">
<stop stop-color="#632366"/>
<stop offset="1" stop-color="#44798E"/>
</linearGradient>
<linearGradient id="paint3_linear_87_1704" x1="13.5" y1="17" x2="22" y2="17" gradientUnits="userSpaceOnUse">
<stop stop-color="#632366"/>
<stop offset="1" stop-color="#44798E"/>
</linearGradient>
</defs>
</svg>
