<svg width="18" height="19" viewBox="0 0 18 19" fill="none" xmlns="http://www.w3.org/2000/svg">
<path d="M9.83325 1.16699H10.0605C12.7782 1.16699 14.137 1.16699 15.0807 1.83185C15.3511 2.02235 15.5911 2.24826 15.7935 2.50273C16.4999 3.39089 16.4999 4.66979 16.4999 7.2276V9.34881C16.4999 11.8181 16.4999 13.0528 16.1091 14.0389C15.4809 15.6241 14.1523 16.8746 12.468 17.4659C11.4202 17.8337 10.1084 17.8337 7.48477 17.8337C5.98554 17.8337 5.23593 17.8337 4.63723 17.6235C3.67475 17.2856 2.91554 16.5711 2.55656 15.6652C2.33325 15.1017 2.33325 14.3962 2.33325 12.9852V9.50033" stroke="#696F79" stroke-width="1.5" stroke-linecap="round" stroke-linejoin="round"/>
<path d="M16.5001 9.5C16.5001 11.0341 15.2564 12.2778 13.7223 12.2778C13.1675 12.2778 12.5134 12.1806 11.9739 12.3251C11.4946 12.4535 11.1203 12.8279 10.9919 13.3072C10.8473 13.8466 10.9445 14.5007 10.9445 15.0556C10.9445 16.5897 9.70087 17.8333 8.16675 17.8333" stroke="#696F79" stroke-width="1.5" stroke-linecap="round" stroke-linejoin="round"/>
<path d="M8.16667 4.50033L1.5 4.50033M4.83333 1.16699V7.83366" stroke="#696F79" stroke-width="1.5" stroke-linecap="round"/>
</svg>
